<?xml version="1.0" encoding="UTF-8"?>
<svg width="90px" height="90px" viewBox="0 0 90 90" version="1.1" xmlns="http://www.w3.org/2000/svg" xmlns:xlink="http://www.w3.org/1999/xlink">
    <!-- Generator: Sketch 58 (84663) - https://sketch.com -->
    <title>Group 2 Copy 3</title>
    <desc>Created with Sketch.</desc>
    <defs>
        <linearGradient x1="0%" y1="0%" x2="100%" y2="100%" id="linearGradient-1">
            <stop stop-color="#219CE3" offset="0%"></stop>
            <stop stop-color="#1675BE" offset="100%"></stop>
        </linearGradient>
    </defs>
    <g id="Page-1" stroke="none" stroke-width="1" fill="none" fill-rule="evenodd">
        <g id="Group-2-Copy-3">
            <rect id="Rectangle" fill="url(#linearGradient-1)" x="0" y="0" width="90" height="90" rx="10"></rect>
            <g id="dollar" transform="translate(15.000000, 15.000000)" fill="#FFFFFF" fill-rule="nonzero">
                <g id="Group">
                    <path d="M30.0000641,0 C23.4463602,0 17.0447072,2.19589274 11.8622823,6.11549975 L12.1113844,3.59768462 L8.26754644,3.21717261 L7.52767622,10.6933105 C7.41729184,11.8094619 8.32818733,12.8148444 9.44959519,12.8148444 L16.8652204,12.8148444 L16.8652204,8.95241677 L14.5129177,8.95241677 C18.9708569,5.68024427 24.4082812,3.86268405 30.0000641,3.86268405 C44.4122128,3.86268405 56.1373159,15.5877872 56.1373159,29.9999359 C56.1373159,30.8126265 56.0997519,31.6324965 56.0253931,32.4368538 L59.8716669,32.7919812 C59.956795,31.8700601 59.9998718,30.9307031 59.9998718,29.9999359 C59.9998718,13.6489452 46.3510548,0 30.0000641,0 Z" id="Path"></path>
                    <path d="M4.48434939,45.785415 C5.3031938,47.1061814 6.23267899,48.373871 7.24742041,49.5536121 L10.1758757,47.0348995 C9.2912622,46.0065684 8.48100752,44.9013143 7.7674193,43.7502911 L4.48434939,45.785415 Z" id="Path"></path>
                    <path d="M18.4998323,57.7160305 C19.9366241,58.3128241 21.4320055,58.8003872 22.9446946,59.1650018 L23.849949,55.4100098 C22.5336698,55.0925746 21.2320059,54.6682165 19.9814958,54.1488587 L18.4998323,57.7160305 Z" id="Path"></path>
                    <path d="M4.61845167,36.2674866 L0.867690454,37.1901769 C1.23935633,38.7014558 1.73422706,40.1955551 2.33858475,41.6310649 L5.89870534,40.1326066 C5.37280903,38.8828656 4.94204072,37.582612 4.61845167,36.2674866 Z" id="Path"></path>
                    <path d="M3.92550443,28.175709 L0.0719229232,27.9104532 C-0.0349999252,29.4645524 -0.0228204641,31.0272414 0.10961515,32.5792894 L3.95819667,32.2510849 C3.8428123,30.896216 3.8321713,29.5322446 3.92550443,28.175709 Z" id="Path"></path>
                    <path d="M5.73575697,20.2638029 L2.15127745,18.824447 C1.5714069,20.2685464 1.1014079,21.7698253 0.754613772,23.2867451 L4.51999034,24.1477689 C4.82191277,22.8276435 5.23088626,21.5208515 5.73575697,20.2638029 L5.73575697,20.2638029 Z" id="Path"></path>
                    <path d="M10.5589518,52.8488614 C11.7434364,53.8575772 13.0152286,54.780524 14.3392001,55.5924453 L16.3582984,52.2993754 C15.2044547,51.591941 14.0958673,50.7874556 13.0633054,49.9080985 L10.5589518,52.8488614 Z" id="Path"></path>
                    <path d="M54.0296281,40.3011959 L57.5789795,41.825167 C58.1930808,40.3949137 58.6982079,38.9053015 59.080643,37.3977406 L55.3364202,36.4481272 C55.0037286,37.7600475 54.563986,39.0565832 54.0296281,40.3011959 L54.0296281,40.3011959 Z" id="Path"></path>
                    <path d="M49.7072015,47.169771 L52.6184773,49.7083553 C53.640911,48.5357937 54.5788577,47.274899 55.4060355,45.9605428 L52.1370681,43.9029831 C51.4161722,45.0483653 50.5986098,46.1475937 49.7072015,47.169771 Z" id="Path"></path>
                    <path d="M27.8691712,56.0516751 L27.5591719,59.9017951 C29.1116045,60.0270512 30.674037,60.0324358 32.2272388,59.9183335 L31.9445471,56.066034 C30.5944218,56.1653928 29.2125017,56.15988 27.8691712,56.0516751 L27.8691712,56.0516751 Z" id="Path"></path>
                    <path d="M35.9686411,55.4530866 L36.8468443,59.2146171 C38.3627385,58.8606435 39.8624789,58.3835932 41.3049117,57.7965432 L39.8486328,54.2187303 C38.5932509,54.7298831 37.287869,55.1451386 35.9686411,55.4530866 L35.9686411,55.4530866 Z" id="Path"></path>
                    <path d="M43.487984,52.3930932 L45.4841336,55.699881 C46.8138743,54.8971904 48.0925895,53.9824488 49.2848947,52.9810406 L46.800541,50.0232264 C45.7613125,50.8961733 44.6468277,51.6934793 43.487984,52.3930932 Z" id="Path"></path>
                </g>
                <path d="M30.0000641,14.034329 C21.1825188,14.034329 14.0344572,21.1823906 14.0344572,29.9999359 C14.0344572,38.8174812 21.1825188,45.9655428 30.0000641,45.9655428 C38.8176094,45.9655428 45.965671,38.8174812 45.965671,29.9999359 C45.965671,21.1823906 38.8176094,14.034329 30.0000641,14.034329 Z M31.8046756,38.0351751 L31.8046756,40.7024771 L28.1790424,40.7024771 L28.1790424,38.2523542 C26.7851992,38.0477392 25.5462275,37.4715866 24.4399478,36.6212038 L25.7400732,32.9363399 C26.8993015,33.7780047 28.1200681,34.5387724 29.6117316,34.5387724 C30.6166012,34.5387724 31.2657024,34.0740298 31.2657024,33.3546723 C31.2657024,32.853776 31.032626,32.2944182 29.3419886,31.5987786 C27.1275061,30.7177549 24.8617417,29.4257064 24.8617417,26.5287895 C24.8617417,24.3487941 26.1908415,22.5829005 28.3403241,21.8922609 L28.3403241,19.2972665 L31.9426241,19.2972665 L31.9426241,21.6630306 C33.1337754,21.8493123 34.1844141,22.3767471 35.1947966,23.0067457 L33.8389021,26.6344303 C32.7464685,25.9790471 31.7063425,25.344433 30.3722428,25.344433 C29.5110908,25.344433 29.0172457,25.6739195 29.0172457,26.2482772 C29.0172457,26.6859686 29.1691684,27.0366089 31.2007026,27.889684 C34.1358245,29.1045532 35.4446679,30.7395497 35.4446679,33.1909547 C35.4446679,35.427873 34.0203119,37.3164587 31.8046756,38.0351751 L31.8046756,38.0351751 Z" id="Shape"></path>
            </g>
        </g>
    </g>
</svg>