<?xml version="1.0" encoding="UTF-8"?>
<svg width="90px" height="90px" viewBox="0 0 90 90" version="1.1" xmlns="http://www.w3.org/2000/svg" xmlns:xlink="http://www.w3.org/1999/xlink">
    <!-- Generator: Sketch 58 (84663) - https://sketch.com -->
    <title>Group 2 Copy 4</title>
    <desc>Created with Sketch.</desc>
    <defs>
        <linearGradient x1="0%" y1="0%" x2="100%" y2="100%" id="linearGradient-1">
            <stop stop-color="#219CE3" offset="0%"></stop>
            <stop stop-color="#1675BE" offset="100%"></stop>
        </linearGradient>
    </defs>
    <g id="Page-1" stroke="none" stroke-width="1" fill="none" fill-rule="evenodd">
        <g id="Group-2-Copy-4">
            <rect id="Rectangle" fill="url(#linearGradient-1)" x="0" y="0" width="90" height="90" rx="10"></rect>
            <g id="premium" transform="translate(25.000000, 15.000000)" fill="#FFFFFF" fill-rule="nonzero">
                <path d="M21.0798094,16.1065896 L19.5007201,13 L17.9206707,16.1056576 C17.6518078,16.6340621 17.1328065,16.9998447 16.532186,17.0846504 L13,17.5818351 L15.5556375,20.0001942 C15.9901391,20.4116413 16.1879455,21.003883 16.0856815,21.5840097 L15.4817003,24.9981361 L18.6413192,23.3868288 C19.1776045,23.1133072 19.8195146,23.1128413 20.3567603,23.3872947 L23.515899,25 L22.9133582,21.5854075 C22.8106141,21.005281 23.0089005,20.4125733 23.4438823,20.0020581 L26,17.584165 L22.467814,17.0855823 C21.8676736,17.0007766 21.3481921,16.634528 21.0798094,16.1065896 Z" id="Path"></path>
                <path d="M19.5,0 C8.74776275,0 0,8.74761178 0,19.5002309 C0,30.2523882 8.74776275,39 19.5,39 C30.2522372,39 39,30.2523882 39,19.5002309 C39,8.74761178 30.2522372,0 19.5,0 Z M30.7895952,17.5824781 L26.4265625,21.833943 L27.4551136,27.8383466 C27.7034801,29.2856636 26.1772727,30.3881175 24.8828125,29.7067013 L19.4912287,26.8706986 L14.09826,29.7048546 C12.8001066,30.3867325 11.278054,29.2815085 11.5264205,27.8355766 L12.5572798,21.8316346 L8.19563207,17.5783231 C7.1458452,16.554352 7.72659798,14.7654036 9.17894179,14.5548848 L15.2075995,13.6795696 L17.9045455,8.21762137 C18.5540838,6.90187868 20.4334518,6.89957027 21.0839134,8.21808301 L23.7794745,13.6814163 L29.8076705,14.5585781 C31.2590909,14.7695586 31.840767,16.5585071 30.7895952,17.5824781 Z" id="Shape"></path>
                <path d="M7,39 L7,58.2746046 C7,59.650785 8.5927269,60.4703888 9.77669274,59.7082381 L19.4934895,53.4516894 L29.2242374,59.7091358 C30.4012276,60.4659004 32,59.6593131 32,58.2746046 L32,39 C24.389788,43.7120487 14.6134673,43.714293 7,39 Z" id="Path"></path>
            </g>
        </g>
    </g>
</svg>