<?xml version="1.0" encoding="UTF-8"?>
<svg width="90px" height="90px" viewBox="0 0 90 90" version="1.1" xmlns="http://www.w3.org/2000/svg" xmlns:xlink="http://www.w3.org/1999/xlink">
    <!-- Generator: Sketch 58 (84663) - https://sketch.com -->
    <title>Group 2 Copy 11</title>
    <desc>Created with Sketch.</desc>
    <defs>
        <linearGradient x1="0%" y1="0%" x2="100%" y2="100%" id="linearGradient-1">
            <stop stop-color="#219CE3" offset="0%"></stop>
            <stop stop-color="#1675BE" offset="100%"></stop>
        </linearGradient>
    </defs>
    <g id="Page-1" stroke="none" stroke-width="1" fill="none" fill-rule="evenodd">
        <g id="Group-2-Copy-11">
            <rect id="Rectangle" fill="url(#linearGradient-1)" x="0" y="0" width="90" height="90" rx="10"></rect>
            <g id="megaphone" transform="translate(18.000000, 15.000000)" fill="#FFFFFF" fill-rule="nonzero">
                <path d="M50.9835765,25.0852561 L27.916459,2.01212879 C26.5560295,0.654892799 24.3553381,0.670951346 23.0126981,2.01039585 C21.662434,3.3642815 21.662434,5.56256941 23.0126981,6.91472212 L46.0831656,29.9862321 C47.4347004,31.3379226 49.6319263,31.3379226 50.9835765,29.9862321 C52.3388078,28.6308445 52.3388078,26.4404126 50.9835765,25.0852561 Z" id="Path"></path>
                <path d="M21.3940357,10 L21.2203086,10.8685494 C19.9965902,16.9737575 17.0225394,22.773809 13,27.4747432 L25.5581691,40 C30.2708779,35.9888098 36.0060683,32.9428922 42.1275501,31.7208822 L43,31.5476104 L21.3940357,10 Z" id="Path"></path>
                <path d="M10.3932215,30 L1.56733548,38.824485 C-0.518104434,40.9100152 -0.526781386,44.2958369 1.56733548,46.3900445 L6.60971407,51.4326413 C8.69515399,53.5181715 12.0808291,53.5267299 14.174946,51.4326413 L23,42.6072053 L10.3932215,30 Z M11.6538756,43.8688649 C10.9574611,44.5653095 9.8291008,44.5653095 9.13268629,43.8688649 C8.43627179,43.1724202 8.43627179,42.0440111 9.13268629,41.3475665 L11.6538756,38.8262681 C12.3502901,38.1298234 13.4786504,38.1298234 14.1750649,38.8262681 C14.8714794,39.5227127 14.8714794,40.6511218 14.1750649,41.3475665 L11.6538756,43.8688649 Z" id="Shape"></path>
                <path d="M30.0643342,52.3597689 L32.4545996,50.0231855 C34.5185097,48.0059714 34.5117155,44.744259 32.4547167,42.7367783 L30.6793253,41 C29.6980337,41.6443497 28.7609045,42.3444659 27.8497805,43.0915313 L29.9700355,45.1672602 C30.6547256,45.8331378 30.6595284,46.9168636 29.9700355,47.5944213 L27.5402935,49.9695947 L23.9695966,46.5877609 L19,51.4457474 L26.9722761,58.9973606 C28.3327535,60.330719 30.5665183,60.3382767 31.9398813,58.995643 C33.3109015,57.655414 33.3109015,55.4765113 31.9398813,54.1361678 L30.0643342,52.3597689 Z" id="Path"></path>
                <path d="M37,0 C35.8945333,0 35,0.782716667 35,1.75 L35,5.25 C35,6.21728333 35.8945333,7 37,7 C38.1054667,7 39,6.21728333 39,5.25 L39,1.75 C39,0.782716667 38.1054667,0 37,0 Z" id="Path"></path>
                <path d="M51.25,14 L47.75,14 C46.7827167,14 46,14.8945333 46,16 C46,17.1054667 46.7827167,18 47.75,18 L51.25,18 C52.2172833,18 53,17.1054667 53,16 C53,14.8945333 52.2172833,14 51.25,14 Z" id="Path"></path>
                <path d="M48.4873332,4.51266357 C47.8037775,3.82911214 46.6962516,3.82911214 46.0126959,4.51266357 L42.5126668,8.01267086 C41.8291111,8.69622228 41.8291111,9.80374126 42.5126668,10.4872927 C43.1962225,11.1708441 44.3037484,11.1709608 44.9873041,10.4872927 L48.4873332,6.98728539 C49.1708889,6.30373397 49.1708889,5.19621499 48.4873332,4.51266357 Z" id="Path"></path>
            </g>
        </g>
    </g>
</svg>