<?xml version="1.0" encoding="UTF-8"?>
<svg width="510px" height="130px" viewBox="0 0 510 130" version="1.1" xmlns="http://www.w3.org/2000/svg" xmlns:xlink="http://www.w3.org/1999/xlink">
    <!-- Generator: Sketch 58 (84663) - https://sketch.com -->
    <title>Group 3</title>
    <desc>Created with Sketch.</desc>
    <defs>
        <linearGradient x1="11.5502959%" y1="0%" x2="88.4497041%" y2="100%" id="linearGradient-1">
            <stop stop-color="#E5A823" offset="0%"></stop>
            <stop stop-color="#E56023" offset="100%"></stop>
        </linearGradient>
    </defs>
    <g id="Page-1" stroke="none" stroke-width="1" fill="none" fill-rule="evenodd">
        <g id="Group-3" fill-rule="nonzero">
            <g id="umbrella" fill="url(#linearGradient-1)">
                <polygon id="Path" points="10.8576857 103.689625 10.8576857 38.783875 56.9951143 12.478375 103.143943 38.783875 103.143943 91.21125 56.9951143 117.521625 32.5714286 103.59375 32.5714286 51.3565 56.9951143 37.43025 81.4285714 51.3565 81.4285714 78.637 56.9951143 92.564875 54.2868 91.021125 54.2868 63.932375 67.9374857 56.145375 56.9951143 49.908625 43.4291143 57.6485 43.4291143 97.305 56.9951143 105.04325 92.2862571 84.920875 92.2862571 45.072625 56.9951143 24.95675 21.7153714 45.072625 21.7153714 109.877625 56.9951143 130 114 97.5 114 32.5 56.9951143 0 1.42108547e-14 32.5 1.42108547e-14 97.5"></polygon>
            </g>
            <path d="M211.185547,75.2128906 C210.67643,82.2506862 208.078474,87.7909954 203.391602,91.8339844 C198.704729,95.8769733 192.528033,97.8984375 184.861328,97.8984375 C176.47587,97.8984375 169.879907,95.0758746 165.073242,89.4306641 C160.266578,83.7854535 157.863281,76.0365076 157.863281,66.1835938 L157.863281,62.1855469 C157.863281,55.8964529 158.971343,50.3561438 161.1875,45.5644531 C163.403657,40.7727625 166.570617,37.0966925 170.688477,34.5361328 C174.806336,31.9755731 179.590468,30.6953125 185.041016,30.6953125 C192.587928,30.6953125 198.667295,32.7167767 203.279297,36.7597656 C207.891299,40.8027546 210.556637,46.477828 211.275391,53.7851562 L197.798828,53.7851562 C197.469399,49.5624789 196.293955,46.500335 194.272461,44.5986328 C192.250966,42.6969306 189.173849,41.7460938 185.041016,41.7460938 C180.548806,41.7460938 177.187186,43.3557782 174.956055,46.5751953 C172.724924,49.7946125 171.579427,54.7883776 171.519531,61.5566406 L171.519531,66.4980469 C171.519531,73.5657905 172.590159,78.7317545 174.731445,81.9960938 C176.872732,85.260433 180.249326,86.8925781 184.861328,86.8925781 C189.024109,86.8925781 192.131175,85.9417413 194.182617,84.0400391 C196.23406,82.1383368 197.409504,79.1959835 197.708984,75.2128906 L211.185547,75.2128906 Z M248.107734,74.2246094 L222.816719,74.2246094 L222.816719,63.7578125 L248.107734,63.7578125 L248.107734,74.2246094 Z M263.063125,97 L263.063125,31.59375 L285.973281,31.59375 C293.909519,31.59375 299.92899,33.1135916 304.031875,36.1533203 C308.13476,39.1930491 310.186172,43.6477571 310.186172,49.5175781 C310.186172,52.7220212 309.362612,55.5445842 307.715469,57.9853516 C306.068325,60.426119 303.777332,62.2154891 300.842422,63.3535156 C304.196605,64.1920615 306.839483,65.8841019 308.771133,68.4296875 C310.702783,70.9752731 311.668594,74.0898253 311.668594,77.7734375 C311.668594,84.0625314 309.662103,88.8242026 305.649063,92.0585938 C301.636022,95.2929849 295.916027,96.9401039 288.488906,97 L263.063125,97 Z M276.539688,68.5195312 L276.539688,86.1738281 L288.084609,86.1738281 C291.259104,86.1738281 293.73727,85.4176508 295.51918,83.9052734 C297.30109,82.3928961 298.192031,80.3040498 298.192031,77.6386719 C298.192031,71.6490586 295.092453,68.6093754 288.893203,68.5195312 L276.539688,68.5195312 Z M276.539688,58.9960938 L286.512344,58.9960938 C293.310555,58.8763015 296.709609,56.1660421 296.709609,50.8652344 C296.709609,47.9003758 295.848615,45.7666081 294.126602,44.4638672 C292.404588,43.1611263 289.686841,42.5097656 285.973281,42.5097656 L276.539688,42.5097656 L276.539688,58.9960938 Z M362.381797,83.5234375 L338.752891,83.5234375 L334.260703,97 L319.930625,97 L344.278281,31.59375 L356.766562,31.59375 L381.248984,97 L366.918906,97 L362.381797,83.5234375 Z M342.391562,72.6074219 L358.743125,72.6074219 L350.522422,48.125 L342.391562,72.6074219 Z M404.514922,31.59375 L430.794219,74.71875 L430.794219,31.59375 L444.225859,31.59375 L444.225859,97 L430.749297,97 L404.514922,53.9648438 L404.514922,97 L391.038359,97 L391.038359,31.59375 L404.514922,31.59375 Z M479.800391,31.59375 C485.550419,31.59375 490.693923,32.8889844 495.231055,35.4794922 C499.768187,38.0699999 503.309492,41.7535568 505.855078,46.5302734 C508.400664,51.30699 509.673437,56.7349956 509.673437,62.8144531 L509.673437,65.8242188 C509.673437,71.9036762 508.423124,77.3092211 505.922461,82.0410156 C503.421797,86.7728101 499.895465,90.4413932 495.343359,93.046875 C490.791253,95.6523568 485.655237,96.9700519 479.935156,97 L459.675391,97 L459.675391,31.59375 L479.800391,31.59375 Z M479.800391,42.5097656 L473.151953,42.5097656 L473.151953,86.1738281 L479.665625,86.1738281 C484.936485,86.1738281 488.964439,84.4518401 491.749609,81.0078125 C494.53478,77.5637849 495.957291,72.6374018 496.017187,66.2285156 L496.017187,66.2285156 L496.017187,62.7695312 C496.017187,56.1210605 494.639597,51.0823739 491.884375,47.6533203 C489.129153,44.2242667 485.101198,42.5097656 479.800391,42.5097656 L479.800391,42.5097656 Z" id="C-BAND" fill="#FFFFFF"></path>
        </g>
    </g>
</svg>